<svg width="1024" height="1024" viewBox="0 0 1024 1024" fill="none" xmlns="http://www.w3.org/2000/svg">
<path d="M733.252 333.09C730.389 316.842 726.184 300.906 719.565 285.78C707.607 258.212 687.507 239.134 660.384 227.358C646.441 221.36 631.805 218.776 616.726 218.741C605.159 218.782 593.612 219.741 582.192 221.611C581.33 221.682 580.368 221.668 579.408 221.757L318.062 269.003C314.799 269.866 311.519 270.629 308.238 271.393C292.183 275.266 276.363 279.898 262.162 288.854C235.173 305.711 217.768 329.797 210.694 361.249C208.199 371.905 207.911 382.776 208.274 393.717C208.519 402.549 209.365 411.358 210.651 420.087C210.773 420.78 210.729 421.487 210.852 422.18L258.275 691.267L260.418 700.472C264.696 718.252 270.115 735.639 280.508 750.798C300.112 779.472 327.42 795.729 361.687 799.74C371.268 800.939 381.015 800.505 390.671 799.646C402.947 798.67 415.024 796.657 427.088 794.476L666.866 751.129C678.245 749.071 689.488 746.238 700.611 742.728C718.117 737.161 733.985 728.789 747.409 715.901C763.331 700.834 774.55 681.375 779.683 659.926C782.12 649.893 782.679 639.603 782.614 629.308C782.453 613.986 780.305 598.836 777.654 583.794C762.839 500.211 748.191 416.616 733.376 333.033L733.252 333.09ZM609.125 446.118L631.284 571.853C632.905 581.049 633.225 590.311 630.619 599.386C626.63 613.499 617.881 623.514 604.902 629.949C597.712 633.518 590.125 636.2 582.304 637.936C572.504 640.32 562.181 638.97 553.3 634.145C544.419 629.319 537.6 621.355 534.14 611.768C531 603.147 530.74 593.72 533.4 584.935C536.061 576.15 541.495 568.492 548.868 563.138C555.224 558.445 562.425 555.014 569.699 552.097C577.615 548.809 585.56 545.686 593.376 542.313C599.167 539.853 602.411 535.45 602.493 528.944C602.594 527.511 602.416 526.027 602.175 524.657L581.048 404.784C580.778 403.421 580.341 402.098 579.749 400.844C578.31 397.646 575.581 396.095 572.219 396.873C568.759 397.669 565.476 398.893 562.207 400.199C546.22 406.463 530.264 412.806 514.387 419.22L436.878 450.184C436.55 450.329 436.159 450.587 435.816 450.649C430.087 453.457 428.454 456.597 429.313 463.001C429.397 463.957 429.648 464.9 429.813 465.841C439.827 523.134 450.003 580.398 460.013 637.674C461.651 646.97 462.23 656.27 460.108 665.513C456.561 680.704 447.429 691.504 433.743 698.323C426.512 701.95 418.86 704.645 410.967 706.342C390.301 710.879 370.501 699.994 363.295 679.914C357.079 662.586 361.753 641.859 380.273 629.634C387.505 624.953 395.258 621.695 403.188 618.489L421.19 611.248C429.187 607.945 432.584 601.828 431.491 593.149L396.45 394.318C395.964 391.561 395.823 388.758 395.939 385.977C396.366 379.426 400.146 375.011 405.822 372.469C411.089 370 416.598 367.948 421.978 365.731C437.362 359.577 452.664 353.437 468.063 347.365L515.605 328.292C529.697 322.729 543.676 317.101 557.769 311.538C562.363 309.736 567.022 307.82 571.786 306.601C578.382 304.796 583.817 308.243 585.715 315.004C586.166 316.609 586.552 318.226 586.84 319.861L609.075 446.025L609.125 446.118Z" fill="#0053D0"/>
<path fill-rule="evenodd" clip-rule="evenodd" d="M643.028 303.774C634.051 303.774 626.78 296.388 628.171 287.661C636.864 234.647 677.831 196 748.923 196C820.047 196 868 238.387 868 296.201C868 338.089 846.979 367.51 811.417 388.859C776.646 409.398 766.72 423.704 766.72 451.504V452.439C766.72 456.572 765.055 460.536 762.091 463.458C759.127 466.381 755.107 468.023 750.915 468.023H726.575C722.41 468.023 718.414 466.402 715.454 463.514C712.495 460.625 710.811 456.701 710.769 452.595L710.675 446.362C709.315 408.307 725.753 383.997 762.674 361.838C795.233 342.141 806.834 326.464 806.834 298.632C806.834 268.12 782.873 245.711 745.952 245.711C714.057 245.711 691.898 262.198 684.691 289.407C682.605 297.323 675.903 303.774 667.621 303.774H643.06H643.028ZM738.523 570C758.185 570 773.137 555.227 773.137 536.028C773.137 516.767 758.185 501.994 738.523 501.994C719.368 501.994 704.163 516.767 704.163 535.997C704.163 555.227 719.368 570 738.523 570Z" fill="white"/>
<circle cx="10" cy="555.436" r="10" fill="#00FF29"/>
<circle cx="80.1739" cy="224.838" r="7.5" fill="#00FF29"/>
<circle cx="163.602" cy="939.96" r="10" fill="#00FF29"/>
<circle cx="155.342" cy="555.437" r="10" fill="#00FF29"/>
<circle cx="270" cy="242" r="10" fill="#00FF29"/>
<circle cx="522" cy="865" r="10" fill="#00FF29"/>
<circle cx="860.578" cy="507.371" r="10" fill="#00FF29"/>
<circle cx="969.5" cy="367.5" r="7.5" fill="#00FF29"/>
<circle cx="1017.48" cy="643.209" r="10" fill="#0094FF"/>
<circle cx="650.5" cy="885.5" r="7.5" fill="#0094FF"/>
<circle cx="325.5" cy="813.5" r="7.5" fill="#0094FF"/>
<circle cx="844.059" cy="1013.1" r="10" fill="#00FF29"/>
<circle cx="180.116" cy="10" r="10" fill="#0094FF"/>
<circle cx="436.115" cy="16.269" r="10" fill="#00FF29"/>
<circle cx="924.144" cy="36.7568" r="7.5" fill="#0094FF"/>
</svg>
