<?xml version="1.0" standalone="no"?>
<!DOCTYPE svg PUBLIC "-//W3C//DTD SVG 20010904//EN"
 "http://www.w3.org/TR/2001/REC-SVG-20010904/DTD/svg10.dtd">
<svg version="1.0" xmlns="http://www.w3.org/2000/svg"
 width="512.000000pt" height="512.000000pt" viewBox="0 0 512.000000 512.000000"
 preserveAspectRatio="xMidYMid meet">
<metadata>
Created by potrace 1.14, written by Peter Selinger 2001-2017
</metadata>
<g transform="translate(0.000000,512.000000) scale(0.100000,-0.100000)"
fill="#000000" stroke="none">
<path d="M866 5104 c-41 -41 12 -117 55 -78 25 23 25 70 0 84 -27 14 -37 13
-55 -6z"/>
<path d="M2147 5072 c-27 -30 -20 -74 15 -93 43 -23 79 58 42 95 -20 21 -37
20 -57 -2z"/>
<path d="M4592 4967 c-16 -18 -3 -59 17 -55 21 4 26 41 8 56 -11 10 -17 9 -25
-1z"/>
<path d="M3639 4136 c-2 -2 -23 -6 -47 -10 -85 -11 -215 -69 -269 -119 -22
-20 -23 -20 -85 -2 -110 32 -274 23 -548 -31 -21 -4 -68 -12 -270 -49 -14 -3
-79 -14 -145 -26 -66 -11 -138 -24 -160 -29 -22 -5 -60 -12 -85 -15 -24 -4
-47 -8 -50 -10 -4 -2 -26 -7 -51 -10 -24 -3 -51 -7 -59 -9 -23 -4 -84 -16
-200 -37 -268 -50 -398 -111 -503 -238 -128 -155 -151 -337 -88 -686 17 -93
40 -224 52 -290 11 -66 27 -154 34 -195 8 -41 37 -205 65 -365 28 -159 53
-303 56 -320 15 -86 58 -225 86 -277 81 -152 246 -270 408 -294 35 -5 170 -5
200 0 14 2 48 7 75 11 28 3 111 18 185 32 74 14 149 27 165 30 17 2 53 8 80
13 28 5 64 12 80 15 17 3 41 7 55 10 14 3 41 8 60 11 19 3 42 7 50 9 8 3 33 7
55 10 22 4 74 13 115 20 144 28 415 77 444 80 61 9 214 58 271 88 89 46 193
155 238 247 19 41 41 98 47 125 11 50 15 212 5 269 -2 17 -7 47 -10 66 -2 19
-7 46 -10 60 -16 77 -26 165 -22 196 6 40 -8 101 -28 124 -7 8 -15 33 -18 55
-3 22 -11 73 -18 113 -11 69 -11 74 9 95 16 16 23 41 27 86 11 124 48 172 222
287 196 130 277 259 282 449 6 226 -129 402 -368 482 -60 20 -102 26 -202 29
-69 2 -127 3 -130 0z m247 -279 c99 -50 147 -130 146 -239 -2 -125 -64 -213
-215 -304 -34 -21 -71 -46 -81 -56 -11 -10 -22 -18 -25 -18 -4 0 -19 71 -35
158 -31 173 -69 289 -121 372 -18 30 -32 57 -29 61 6 10 74 41 109 50 17 5 68
7 115 5 68 -2 95 -8 136 -29z m-973 -284 c8 -10 18 -34 21 -53 3 -19 8 -46 11
-60 6 -32 54 -305 61 -349 3 -18 8 -43 10 -55 2 -11 9 -48 14 -81 5 -33 12
-70 14 -81 2 -12 7 -37 10 -55 3 -19 8 -45 11 -59 3 -14 7 -38 10 -55 3 -26
47 -272 60 -345 32 -170 33 -223 7 -283 -38 -85 -99 -132 -212 -162 -143 -38
-270 57 -270 202 0 114 67 179 266 254 28 11 59 28 69 39 20 23 18 59 -14 240
-12 63 -34 188 -49 277 -16 90 -35 169 -42 178 -7 9 -21 13 -35 9 -12 -3 -172
-66 -356 -139 -246 -98 -337 -139 -345 -155 -8 -14 -8 -36 -2 -68 4 -26 11
-60 14 -77 3 -16 14 -79 24 -140 11 -60 22 -123 25 -140 2 -16 7 -40 9 -51 2
-12 7 -37 10 -55 7 -47 36 -207 43 -244 37 -195 38 -257 4 -322 -38 -75 -92
-115 -196 -145 -71 -21 -128 -15 -183 19 -54 33 -92 98 -96 164 -8 121 63 193
267 269 82 31 95 55 77 145 -5 28 -12 68 -15 89 -3 21 -7 48 -10 60 -3 12 -7
35 -10 51 -5 33 -93 535 -101 575 -25 139 -34 196 -34 216 0 50 35 68 439 230
490 195 466 187 494 157z"/>
<path d="M375 4013 c-13 -31 -14 -44 -3 -69 14 -30 43 -31 62 -1 24 36 7 87
-29 87 -13 0 -26 -8 -30 -17z"/>
<path d="M4820 3294 c-15 -38 -12 -51 12 -68 20 -14 24 -14 40 1 21 18 24 63
6 81 -20 20 -48 14 -58 -14z"/>
<path d="M4260 2610 c-16 -29 -2 -69 27 -76 30 -8 53 19 46 55 -7 43 -54 57
-73 21z"/>
<path d="M12 2378 c-28 -28 -2 -93 33 -86 11 2 25 14 31 27 23 44 -30 93 -64
59z"/>
<path d="M743 2378 c-30 -38 -11 -92 30 -86 27 4 46 51 31 76 -14 21 -48 27
-61 10z"/>
<path d="M5053 1944 c-18 -8 -16 -69 2 -84 22 -18 49 -8 59 23 16 45 -18 79
-61 61z"/>
<path d="M2397 572 c-35 -38 -11 -111 31 -98 29 9 39 52 21 85 -18 32 -32 36
-52 13z"/>
<path d="M782 458 c-13 -13 -16 -57 -4 -74 14 -20 40 -23 56 -5 30 33 15 91
-24 91 -9 0 -21 -5 -28 -12z"/>
<path d="M2890 350 c-11 -11 -20 -26 -20 -33 0 -19 29 -57 45 -57 18 0 44 37
40 58 -2 9 -4 20 -4 24 -1 4 -10 12 -21 18 -15 8 -24 6 -40 -10z"/>
<path d="M4192 94 c-12 -8 -22 -26 -22 -39 0 -25 24 -55 44 -55 36 0 49 65 18
93 -16 15 -20 15 -40 1z"/>
</g>
</svg>
