<svg width="270" height="240" viewBox="0 0 270 240" fill="none" xmlns="http://www.w3.org/2000/svg">
<path d="M37.4469 22.2499C35.9895 23.9183 34.8209 25.9469 34.014 28.2092C33.2071 30.4714 32.7792 32.9187 32.7571 35.3984C32.9118 40.5094 34.6688 45.335 37.6435 48.8188C40.6182 52.3026 44.5681 54.1608 48.6287 53.9866H57.3324V69.0429H42.6077C26.347 69.0429 13.1582 53.5741 13.1582 34.5218C13.1788 29.9235 13.9555 25.3803 15.4393 21.1784C16.9232 16.9765 19.0821 13.2069 21.7801 10.1069C27.4618 3.5522 34.9012 -0.0576354 42.6077 0.000696056H103.104C103.986 -0.00609591 104.861 0.205912 105.678 0.624615C106.495 1.04332 107.238 1.66052 107.866 2.44097C108.493 3.22142 108.993 4.14984 109.335 5.17322C109.678 6.19659 109.857 7.29489 109.862 8.40538C109.86 9.51806 109.683 10.6191 109.341 11.6455C109 12.6718 108.501 13.6033 107.873 14.3865C107.245 15.1697 106.501 15.7892 105.683 16.2095C104.864 16.6298 103.988 16.8426 103.104 16.8359H48.6696C44.5212 16.801 40.5144 18.734 37.4469 22.2499V22.2499Z" fill="#547081"/>
<path d="M61.4258 53.8318H161.161C162.763 53.8318 164.3 54.6331 165.433 56.0594C166.566 57.4857 167.202 59.4202 167.202 61.4373C167.202 63.4543 166.566 65.3888 165.433 66.8151C164.3 68.2414 162.763 69.0427 161.161 69.0427H61.4258V53.8318V53.8318Z" fill="#547081"/>
<path d="M162.267 17.1664L151.311 7.83154L103.33 97.0785L114.286 106.413L162.267 17.1664Z" fill="#547081"/>
<path d="M161.771 17.6333H134.677C130.294 17.6333 126.73 13.9207 126.73 9.33168C126.73 4.74262 130.294 1.03012 134.677 1.03012H164.065C164.673 1.02518 165.271 1.227 165.796 1.61428C166.32 2.00156 166.752 2.55995 167.046 3.23052C167.339 3.9011 167.484 4.659 167.464 5.42427C167.444 6.18955 167.26 6.93382 166.932 7.57856L161.771 17.6333Z" fill="#547081"/>
<path d="M165.113 110.448H103.674C102.887 110.449 102.115 110.174 101.445 109.654C100.774 109.134 100.232 108.389 99.8795 107.504C99.5266 106.618 99.3766 105.626 99.4464 104.638C99.5161 103.651 99.8029 102.708 100.274 101.914L105.394 93.3291H165.194C166.998 93.3291 168.727 94.2309 170.002 95.8361C171.277 97.4413 171.994 99.6184 171.994 101.888V101.888C171.994 103.021 171.815 104.143 171.468 105.188C171.122 106.233 170.613 107.181 169.973 107.978C169.333 108.774 168.574 109.402 167.74 109.826C166.905 110.25 166.012 110.462 165.113 110.448V110.448Z" fill="#547081"/>
<path d="M161.077 214.966C87.9245 252.659 16.9427 247.141 2.54559 202.772C-9.7421 164.719 23.5166 110.346 79.4051 71.9578L88.9075 103.437C64.3322 126.64 51.4915 155.876 59.1304 177.326C69.2677 205.685 111.476 209.733 153.479 186.091C195.483 162.45 221.164 120.169 211.129 91.6805C206.255 78.0164 194.029 69.9985 177.993 67.9617L167.405 33.0024C216.699 22.6899 256.983 34.2914 267.427 66.518C281.845 110.862 234.209 177.326 161.077 214.966Z" fill="#547081"/>
<path d="M117.884 16.5798C121.084 16.5798 123.679 13.3132 123.679 9.28365C123.679 5.25413 121.084 1.98755 117.884 1.98755C114.683 1.98755 112.088 5.25413 112.088 9.28365C112.088 13.3132 114.683 16.5798 117.884 16.5798Z" fill="#547081"/>
</svg>
